<?xml version="1.0" encoding="UTF-8"?>
<svg width="180" height="48" viewBox="0 0 180 48" xmlns="http://www.w3.org/2000/svg">
  <defs>
    <linearGradient id="g" x1="0" x2="1" y1="0" y2="1">
      <stop offset="0%" stop-color="#C9A227"/>
      <stop offset="100%" stop-color="#F1D87A"/>
    </linearGradient>
  </defs>
  <rect x="0" y="0" width="180" height="48" fill="none"/>
  <!-- stylized kolibri (hummingbird) -->
  <path d="M18 36c6-5 9-12 7-17 5 3 10 2 13 0-4 7-11 13-20 17z" fill="url(#g)"/>
  <path d="M28 13c6 3 12 1 18-6-5 9-8 12-10 13 9 1 16-2 24-5-10 7-21 11-32 9 0 2-1 5-4 9-2-5-1-12 4-20z" fill="url(#g)"/>
  <circle cx="23" cy="14" r="1.5" fill="#222"/>
  <!-- wordmark -->
  <text x="56" y="31" font-family="Segoe UI, system-ui, -apple-system, Roboto, Arial" font-size="22" font-weight="700" fill="#222">
    Kolibri Café
  </text>
</svg>
